<?xml version="1.0" standalone="no"?>
<!DOCTYPE svg PUBLIC "-//W3C//DTD SVG 20010904//EN"
 "http://www.w3.org/TR/2001/REC-SVG-20010904/DTD/svg10.dtd">
<svg version="1.0" xmlns="http://www.w3.org/2000/svg"
 width="381.000000pt" height="381.000000pt" viewBox="0 0 381.000000 381.000000"
 preserveAspectRatio="xMidYMid meet">
<metadata>
Created by potrace 1.11, written by Peter Selinger 2001-2013
</metadata>
<g transform="translate(0.000000,381.000000) scale(0.100000,-0.100000)"
fill="#000000" stroke="none">
<path d="M0 1905 l0 -1905 1905 0 1905 0 0 1905 0 1905 -1905 0 -1905 0 0
-1905z m3360 1210 l0 -185 -525 0 -525 0 0 185 0 185 525 0 525 0 0 -185z m0
-570 l0 -185 -525 0 -525 0 0 185 0 185 525 0 525 0 0 -185z m-1927 -173 c106
-29 170 -66 242 -137 63 -63 116 -155 134 -235 28 -119 4 -262 -59 -360 -37
-57 -117 -133 -169 -160 -32 -16 -34 -19 -16 -25 124 -42 248 -143 299 -243
106 -210 52 -503 -122 -663 -64 -58 -149 -101 -263 -131 -80 -20 -108 -22
-581 -25 l-498 -4 0 1006 0 1006 478 -3 c454 -4 481 -5 555 -26z m1520 -227
c136 -35 266 -135 335 -256 57 -100 72 -186 72 -401 l0 -188 -526 0 -526 0 4
213 c4 198 6 217 30 279 57 151 142 249 271 313 112 55 229 69 340 40z"/>
<path d="M670 1860 l0 -300 258 0 c387 0 480 18 561 105 96 104 90 297 -11
402 -72 75 -179 93 -560 93 l-248 0 0 -300z"/>
<path d="M670 976 l0 -346 298 0 c163 0 328 5 366 10 137 20 231 84 280 189
31 68 30 227 -2 293 -29 58 -81 112 -135 140 -87 44 -135 50 -479 55 l-328 5
0 -346z"/>
</g>
</svg>
